<svg width="30" height="25" viewBox="0 0 30 25" fill="none" xmlns="http://www.w3.org/2000/svg">
<path d="M21.25 21.875V19.7917C21.25 18.6866 20.7232 17.6268 19.7855 16.8454C18.8479 16.064 17.5761 15.625 16.25 15.625H6.25C4.92392 15.625 3.65215 16.064 2.71447 16.8454C1.77678 17.6268 1.25 18.6866 1.25 19.7917V21.875" stroke="white" stroke-width="2" stroke-linecap="round" stroke-linejoin="round"/>
<path d="M11.25 11.4583C14.0114 11.4583 16.25 9.59285 16.25 7.29167C16.25 4.99048 14.0114 3.125 11.25 3.125C8.48858 3.125 6.25 4.99048 6.25 7.29167C6.25 9.59285 8.48858 11.4583 11.25 11.4583Z" stroke="white" stroke-width="2" stroke-linecap="round" stroke-linejoin="round"/>
<path d="M28.75 21.875V19.7917C28.7492 18.8685 28.3804 17.9716 27.7017 17.242C27.023 16.5123 26.0727 15.9912 25 15.7604" stroke="white" stroke-width="2" stroke-linecap="round" stroke-linejoin="round"/>
<path d="M20 3.26041C21.0755 3.48989 22.0288 4.01114 22.7095 4.74199C23.3903 5.47283 23.7598 6.3717 23.7598 7.29687C23.7598 8.22205 23.3903 9.12091 22.7095 9.85176C22.0288 10.5826 21.0755 11.1039 20 11.3333" stroke="white" stroke-width="2" stroke-linecap="round" stroke-linejoin="round"/>
</svg>
