<svg width="30" height="25" viewBox="0 0 30 25" fill="none" xmlns="http://www.w3.org/2000/svg">
<path d="M20 21.875V19.7917C20 18.6866 19.4732 17.6268 18.5355 16.8454C17.5979 16.064 16.3261 15.625 15 15.625H6.25C4.92392 15.625 3.65215 16.064 2.71447 16.8454C1.77678 17.6268 1.25 18.6866 1.25 19.7917V21.875" stroke="white" stroke-width="2" stroke-linecap="round" stroke-linejoin="round"/>
<path d="M10.625 11.4583C13.3864 11.4583 15.625 9.59285 15.625 7.29167C15.625 4.99048 13.3864 3.125 10.625 3.125C7.86358 3.125 5.625 4.99048 5.625 7.29167C5.625 9.59285 7.86358 11.4583 10.625 11.4583Z" stroke="white" stroke-width="2" stroke-linecap="round" stroke-linejoin="round"/>
<path d="M25 8.33333V14.5833" stroke="white" stroke-width="2" stroke-linecap="round" stroke-linejoin="round"/>
<path d="M28.75 11.4583H21.25" stroke="white" stroke-width="2" stroke-linecap="round" stroke-linejoin="round"/>
</svg>
